<?xml version="1.0" standalone="no"?>
<!DOCTYPE svg PUBLIC "-//W3C//DTD SVG 20010904//EN"
 "http://www.w3.org/TR/2001/REC-SVG-20010904/DTD/svg10.dtd">
<svg version="1.0" xmlns="http://www.w3.org/2000/svg"
 width="512.000000pt" height="512.000000pt" viewBox="0 0 512.000000 512.000000"
 preserveAspectRatio="xMidYMid meet">

<g transform="translate(0.000000,512.000000) scale(0.100000,-0.100000)"
fill="#808080" stroke="none">
<path d="M1372 4942 c-62 -22 -114 -62 -159 -121 -50 -65 -63 -124 -63 -287
l0 -142 -197 -4 c-174 -3 -206 -7 -263 -27 -202 -70 -355 -223 -427 -426 l-28
-80 -3 -1550 c-3 -1737 -8 -1621 70 -1778 60 -119 180 -239 299 -296 157 -75
26 -71 1959 -71 1935 0 1806 -4 1960 71 118 58 239 179 298 296 78 157 73 41
70 1778 l-3 1550 -28 80 c-39 108 -89 187 -168 265 -77 76 -149 121 -251 158
-68 24 -87 27 -270 30 l-196 4 -4 161 c-3 153 -4 165 -31 218 -32 66 -99 132
-165 162 -39 18 -65 22 -157 22 -107 0 -112 -1 -174 -35 -75 -41 -131 -106
-157 -182 -13 -41 -17 -83 -16 -188 1 -74 -2 -141 -6 -148 -7 -10 -155 -12
-708 -10 l-699 3 -1 146 c-1 109 -6 160 -19 198 -25 76 -81 141 -155 180 -57
31 -74 35 -159 38 -76 3 -107 0 -149 -15z m-178 -1036 c32 -55 96 -112 155
-140 38 -17 65 -21 156 -21 106 0 112 1 173 34 100 54 172 162 172 258 0 52
16 31 36 -47 31 -121 -6 -256 -96 -354 -188 -203 -525 -149 -643 103 -39 84
-48 190 -22 277 l18 59 13 -63 c7 -35 24 -83 38 -106z m2100 30 c27 -63 80
-120 148 -157 61 -33 67 -34 173 -34 91 0 118 4 156 21 100 47 170 136 193
246 l13 63 18 -59 c26 -88 17 -194 -22 -277 -144 -303 -571 -301 -714 5 -47
99 -49 202 -7 303 11 28 11 27 18 -22 4 -27 15 -68 24 -89z m1246 -1426 c0
-613 -1 -632 -21 -693 -58 -171 -170 -347 -324 -506 -230 -238 -534 -419 -909
-543 l-119 -39 -1166 3 c-1103 3 -1169 4 -1213 22 -63 24 -143 96 -176 160
l-27 51 -3 1088 -2 1087 1980 0 1980 0 0 -630z m-2 -1380 c-3 -156 -5 -168
-30 -216 -15 -28 -50 -72 -78 -97 -82 -74 -107 -79 -400 -83 -175 -3 -250 -1
-240 6 8 6 66 40 127 78 62 37 150 94 195 127 97 70 326 295 383 377 l40 57 3
-42 c2 -23 2 -116 0 -207z"/>
<path d="M2000 2525 l0 -175 350 0 c193 0 350 -2 350 -3 0 -2 -147 -260 -326
-573 -180 -313 -329 -575 -331 -582 -4 -10 42 -12 226 -10 l232 3 335 600 334
600 0 158 0 157 -585 0 -585 0 0 -175z"/>
</g>
</svg>
